<?xml version="1.0" encoding="UTF-8"?>
<svg width="41px" height="41px" viewBox="0 0 41 41" version="1.1" xmlns="http://www.w3.org/2000/svg" xmlns:xlink="http://www.w3.org/1999/xlink">
    <!-- Generator: Sketch 62 (91390) - https://sketch.com -->
    <title>btn_voice_on</title>
    <desc>Created with Sketch.</desc>
    <g id="Therapist" stroke="none" stroke-width="1" fill="none" fill-rule="evenodd">
        <g id="02_Therapist--Sessions,-Full-Screen-session_Sound-on" transform="translate(-558.000000, -726.000000)">
            <g id="btn_voice_on" transform="translate(558.000000, 726.000000)">
                <g id="Group-6">
                    <rect id="Rectangle-Copy" fill="#44D7B6" x="0" y="0" width="41" height="41" rx="20.5"></rect>
                    <path d="M16.8744186,31.0285714 C16.339473,31.0285714 15.905814,30.6362876 15.905814,30.152381 C15.905814,29.6684743 16.339473,29.2761905 16.8744186,29.2761905 L16.8744186,29.2761905 L19.78,29.276 L19.7805225,27.4696115 C16.0407619,27.0478928 13.128543,24.2154941 13.0041419,20.7456621 L13,20.5142857 L13,18.7619048 C13,18.2779981 13.4336591,17.8857143 13.9686047,17.8857143 C14.5035502,17.8857143 14.9372093,18.2779981 14.9372093,18.7619048 L14.9372093,18.7619048 L14.9372093,20.5142857 C14.9372093,23.4177255 17.5391638,25.7714286 20.7488372,25.7714286 C23.9585106,25.7714286 26.5604651,23.4177255 26.5604651,20.5142857 L26.5604651,20.5142857 L26.5604651,18.7619048 C26.5604651,18.2779981 26.9941242,17.8857143 27.5290698,17.8857143 C28.0640153,17.8857143 28.4976744,18.2779981 28.4976744,18.7619048 L28.4976744,18.7619048 L28.4976744,20.5142857 C28.4976744,24.0888459 25.5397945,27.0384701 21.7173195,27.4695926 L21.717,29.276 L24.6232558,29.2761905 C25.119991,29.2761905 25.5293924,29.6144352 25.585344,30.0501986 L25.5918605,30.152381 C25.5918605,30.6362876 25.1582014,31.0285714 24.6232558,31.0285714 L24.6232558,31.0285714 Z M20.7488372,10 C22.8886195,10 24.6232558,11.5691354 24.6232558,13.5047619 L24.6232558,13.5047619 L24.6232558,20.5142857 C24.6232558,22.4499123 22.8886195,24.0190476 20.7488372,24.0190476 C18.6090549,24.0190476 16.8744186,22.4499123 16.8744186,20.5142857 L16.8744186,20.5142857 L16.8744186,13.5047619 C16.8744186,11.5691354 18.6090549,10 20.7488372,10 Z M20.7488372,11.752381 C19.6789461,11.752381 18.8116279,12.5369486 18.8116279,13.5047619 L18.8116279,13.5047619 L18.8116279,20.5142857 C18.8116279,21.482099 19.6789461,22.2666667 20.7488372,22.2666667 C21.8187284,22.2666667 22.6860465,21.482099 22.6860465,20.5142857 L22.6860465,20.5142857 L22.6860465,13.5047619 C22.6860465,12.5369486 21.8187284,11.752381 20.7488372,11.752381 Z" id="Combined-Shape" fill="#FFFFFF" fill-rule="nonzero"></path>
                </g>
            </g>
        </g>
    </g>
</svg>