<?xml version="1.0" encoding="UTF-8"?>
<svg width="16px" height="16px" viewBox="0 0 16 16" version="1.1" xmlns="http://www.w3.org/2000/svg" xmlns:xlink="http://www.w3.org/1999/xlink">
    <!-- Generator: Sketch 59.1 (86144) - https://sketch.com -->
    <title>Combined Shape</title>
    <desc>Created with Sketch.</desc>
    <g id="Therapist" stroke="none" stroke-width="1" fill="none" fill-rule="evenodd">
        <g id="02_Therapist--Sessions-Copy" transform="translate(-423.000000, -146.000000)" fill="#3C7194" fill-rule="nonzero">
            <g id="Group-4" transform="translate(290.000000, 128.000000)">
                <g id="Group-9" transform="translate(15.000000, 16.000000)">
                    <path d="M126,2 C130.418278,2 134,5.581722 134,10 C134,14.418278 130.418278,18 126,18 C121.581722,18 118,14.418278 118,10 C118,5.581722 121.581722,2 126,2 Z M126,3.45454545 C122.385045,3.45454545 119.454545,6.38504527 119.454545,10 C119.454545,13.6149547 122.385045,16.5454545 126,16.5454545 C129.614955,16.5454545 132.545455,13.6149547 132.545455,10 C132.545455,6.38504527 129.614955,3.45454545 126,3.45454545 Z M126,4.90909091 C126.401662,4.90909091 126.727273,5.234702 126.727273,5.63636364 L126.727273,5.63636364 L126.727273,9.55052074 L129.234337,10.804053 C129.593594,10.9836815 129.739212,11.4205346 129.559583,11.7797917 C129.379955,12.1390488 128.943102,12.2846665 128.583845,12.105038 L128.583845,12.105038 L125.674754,10.6504925 C125.428365,10.5272983 125.272727,10.2754706 125.272727,10 L125.272727,10 L125.272727,5.63636364 C125.272727,5.234702 125.598338,4.90909091 126,4.90909091 Z" id="Combined-Shape"></path>
                </g>
            </g>
        </g>
    </g>
</svg>